# xmcd CD database file
#
# Track frame offsets:
#	182
#	12852
#	27272
#	39805
#	60132
#	71865
#	83927
#	103037
#	119867
#	147472
#
# Disc length: 2102 seconds
#
# Revision: 0
# Processed by: cddbd v1.4PL0 Copyright (c) Steve Scherf et al.
# Submitted via: CDex 1.40Release
#
DISCID=8508340a
DTITLE=Various Blues - Best of the Blues Volume 2
DYEAR=1997
DGENRE=Blues
TTITLE0=Mean Mistreater-Muddy Waters
TTITLE1=Walk On-Brownie McGhee and Sonny Terry
TTITLE2=Big Boss Man-Jimmy Reed
TTITLE3=Life is Like That-Memphis Slim
TTITLE4=Ain't Superstitious-Howlin' Wolf
TTITLE5=Crawlin' Kingsnake Blues-John Lee Hooker
TTITLE6=Good Times-Lightnin' Hopkins
TTITLE7=Goin' Down Slow-Howlin' Wolf
TTITLE8=Blowin' the Fuses-Brownie McGhee and Sonny Terry
TTITLE9=I Ain't Got You-Jimmy Reed
EXTD=YEAR: 1997 ID3G: 0
EXTT0=
EXTT1=
EXTT2=
EXTT3=
EXTT4=
EXTT5=
EXTT6=
EXTT7=
EXTT8=
EXTT9=
PLAYORDER=
